<svg version="1.1" xmlns="http://www.w3.org/2000/svg" viewBox="-275.4559986114502 -1195.0080444335938 4159.48837890625 5404.672119140624"><desc>Created with Snap</desc><defs></defs><g><rect x="-275.4559986114502" y="-1195.0080444335938" width="4159.48837890625" height="5404.672119140624" fill="#c23d00" style=""></rect><g transform="matrix(24.9337,0,0,24.9337,557.6052,1536.2597)"><g><path d="M78.4,66.5c-5.5,4.8-9.9,15.2-9.9,15.2s-6.9-11.4-12.9-15.3c-9.5-6.1-13.6-6.2-13.6-6.2V65c0,0,7.8,1.2,11.7,4.6   c8.2,7.1,14.8,18.5,14.8,18.5S74.4,75,80.1,70.5C88.1,64.3,95,65,95,65v-4.8C95,60.1,85.1,60.7,78.4,66.5z" fill="#ffffff" style=""></path><path d="M42,80c-6.4-3.6-17.8-4.3-17.8-4.3s8.7-10.1,10.5-17C37.5,47.9,36.2,44,36.2,44l-4.6,1.6c0,0,1.3,7.7-0.6,12.4   c-4.1,9.9-13,19.8-13,19.8s14.6,1.3,20.7,5.1c8.6,5.4,10.2,12,10.2,12l4.6-1.6C53.5,93.4,49.7,84.4,42,80z" fill="#ffffff" style=""></path><path d="M35.3,36.8c11.3-0.9,14.6-3.4,14.6-3.4l-3-3.8c0,0-6.9,3.7-12.1,3.4c-10.9-0.6-23.3-5.6-23.3-5.6s3.5,14,1.8,20.9   C10.9,58.2,5,61.8,5,61.8l3,3.8c0,0,7.5-6.5,9.1-15.1c1.3-7.1-1.7-18-1.7-18S28,37.4,35.3,36.8z" fill="#ffffff" style=""></path><path d="M37.4,17.8c7.3-1.1,16.7-7.4,16.7-7.4s-0.6,13.2,2.4,19.8c4.6,10.2,8,12.5,8,12.5l2.7-4c0,0-5.9-5.2-7.3-10.2   C56.9,18.2,57.7,5,57.7,5s-12.3,7.8-19.5,8.5c-10.2,1-15.6-3.3-15.6-3.3l-2.7,4.1C19.9,14.2,28.6,19.1,37.4,17.8z" fill="#ffffff" style=""></path><path d="M65,60.5c0,0,3.1-7.2,7.4-10.1c9-6.1,21.9-9.7,21.9-9.7s-11.5-8.9-14.5-15.4c-4.2-9.1-1.9-15.6-1.9-15.6l-4.8-1.2   c0,0-1.9,9.6,2.2,17.4c3.4,6.4,12.5,13.2,12.5,13.2S75,42.9,69.6,47.8c-8.3,7.6-9.4,11.5-9.4,11.5L65,60.5z" fill="#ffffff" style=""></path></g><desc>Created with Snap</desc><defs></defs></g><g><g transform="matrix(1.024,0,0,-1.024,0,0)"><path d="M238 -8Q144 -8 87 51Q31 110 31 213L31 609Q31 737 82 802Q133 867 242 867Q337 867 395 815Q453 763 453 665L453 517L282 517L282 644Q282 681 273 695Q264 709 242 709Q219 709 210 693Q202 677 202 646L202 215Q202 181 212 165Q222 150 242 150Q282 150 282 215L282 370L455 370L455 208Q455 -8 238 -8ZM722 -8Q503 -8 503 219L503 513Q503 617 561 678Q620 740 722 740Q824 740 882 678Q941 617 941 513L941 219Q941 -8 722 -8ZM722 127Q743 127 753 142Q763 157 763 183L763 541Q763 605 722 605Q681 605 681 541L681 183Q681 157 691 142Q701 127 722 127ZM1006 0L1006 732L1177 732L1177 647Q1189 694 1218 717Q1247 740 1300 740Q1343 740 1374 720Q1406 701 1419 667Q1441 705 1468 722Q1495 740 1543 740Q1629 740 1662 687Q1696 635 1696 535L1694 0L1518 0L1518 538Q1518 609 1482 609Q1457 609 1446 584Q1435 560 1435 526L1435 0L1260 0L1260 538Q1260 569 1253 588Q1247 607 1226 607Q1199 607 1188 580Q1177 554 1177 517L1177 0L1006 0ZM1764 -146L1764 732L1942 732L1942 693Q1980 740 2047 740Q2132 740 2165 683Q2199 626 2199 525L2199 254Q2199 168 2189 113Q2179 59 2145 25Q2111 -8 2042 -8Q1976 -8 1942 29L1942 -146L1764 -146ZM1984 128Q2008 128 2015 150Q2022 172 2022 214L2022 525Q2022 563 2015 583Q2008 603 1983 603Q1942 603 1942 527L1942 206Q1942 169 1950 148Q1959 128 1984 128ZM2405 -8Q2323 -8 2292 41Q2262 90 2262 187L2262 732L2438 732L2438 222Q2438 215 2438 184Q2438 154 2447 141Q2457 129 2477 129Q2504 129 2511 151Q2518 174 2518 216L2518 222L2519 732L2693 732L2693 0L2518 0L2518 78Q2500 32 2476 12Q2452 -8 2405 -8ZM2914 -8Q2845 -8 2819 21Q2793 50 2793 114L2793 571L2744 571L2744 704L2793 704L2793 859L2963 859L2963 704L3013 704L3013 571L2963 571L2963 160Q2963 141 2966 132Q2969 123 2982 123Q2992 123 3001 124Q3010 125 3013 125L3013 5Q2998 1 2969 -4Q2941 -8 2914 -8ZM3273 -8Q3160 -8 3111 54Q3062 116 3062 239L3062 533Q3062 634 3120 687Q3178 740 3282 740Q3493 740 3493 533L3493 480Q3493 400 3491 350L3237 350L3237 208Q3237 170 3245 148Q3253 127 3279 127Q3299 127 3307 139Q3316 151 3317 166Q3319 182 3319 212L3319 283L3493 283L3493 241Q3493 113 3443 52Q3394 -8 3273 -8ZM3236 437L3319 437L3319 531Q3319 610 3280 610Q3236 610 3236 531L3236 437Z" fill="#ffffff" style=""></path></g></g><g transform="matrix(1,0,0,1,134.6562,1345.536)"><g transform="matrix(1.024,0,0,-1.024,0,0)"><path d="M304 0L142 0L142 283L5 859L175 859L223 568L271 859L441 859L304 283L304 0ZM694 -8Q475 -8 475 219L475 513Q475 617 533 678Q592 740 694 740Q796 740 854 678Q913 617 913 513L913 219Q913 -8 694 -8ZM694 127Q715 127 725 142Q735 157 735 183L735 541Q735 605 694 605Q653 605 653 541L653 183Q653 157 663 142Q673 127 694 127ZM1119 -8Q1037 -8 1006 41Q976 90 976 187L976 732L1152 732L1152 222Q1152 215 1152 184Q1152 154 1161 141Q1171 129 1191 129Q1218 129 1225 151Q1232 174 1232 216L1232 222L1233 732L1407 732L1407 0L1232 0L1232 78Q1214 32 1190 12Q1166 -8 1119 -8ZM1477 0L1477 732L1652 732L1652 651Q1665 694 1697 717Q1730 741 1778 741L1778 595Q1741 595 1696 584Q1652 574 1652 560L1652 0L1477 0ZM2022 -8Q1805 -8 1805 212L1806 270L1981 270L1982 184Q1982 158 1992 144Q2002 131 2025 131Q2060 131 2060 188Q2060 230 2043 254Q2027 278 1991 305L1898 377Q1850 414 1829 453Q1808 493 1808 565Q1808 621 1837 660Q1867 700 1916 720Q1965 740 2025 740Q2238 740 2238 528L2238 514L2057 514L2057 542Q2057 568 2048 586Q2040 605 2020 605Q2002 605 1992 594Q1983 584 1983 566Q1983 526 2014 504L2122 425Q2180 382 2211 331Q2242 281 2242 204Q2242 102 2184 47Q2126 -8 2022 -8ZM2501 -8Q2388 -8 2339 54Q2290 116 2290 239L2290 533Q2290 634 2348 687Q2406 740 2510 740Q2721 740 2721 533L2721 480Q2721 400 2719 350L2465 350L2465 208Q2465 170 2473 148Q2481 127 2507 127Q2527 127 2535 139Q2544 151 2545 166Q2547 182 2547 212L2547 283L2721 283L2721 241Q2721 113 2671 52Q2622 -8 2501 -8ZM2464 437L2547 437L2547 531Q2547 610 2508 610Q2464 610 2464 531L2464 437ZM2962 0L2784 0L2784 864L2962 864L2962 0ZM3048 0L3048 567L3017 567L3018 700L3048 700L3048 750Q3048 868 3166 868Q3222 868 3256 854L3256 746Q3246 749 3240 749Q3226 749 3222 739Q3218 729 3218 709L3218 700L3256 700L3256 565L3222 565L3222 0L3048 0Z" fill="#ffffff" style=""></path></g></g></g></svg>